<?xml version="1.0" standalone="no"?>
<!DOCTYPE svg PUBLIC "-//W3C//DTD SVG 20010904//EN"
 "http://www.w3.org/TR/2001/REC-SVG-20010904/DTD/svg10.dtd">
<svg version="1.0" xmlns="http://www.w3.org/2000/svg"
 width="2355.000000pt" height="2355.000000pt" viewBox="0 0 2355.000000 2355.000000"
 preserveAspectRatio="xMidYMid meet">
<metadata>
Created by potrace 1.11, written by Peter Selinger 2001-2013
</metadata>
<g transform="translate(0.000000,2355.000000) scale(0.100000,-0.100000)"
fill="#000000" stroke="none">
<path d="M13503 23539 c-6 -6 -21 -16 -32 -23 -37 -20 -215 -130 -273 -168
-31 -21 -59 -38 -62 -38 -2 0 -37 -22 -78 -48 -40 -27 -80 -51 -88 -55 -8 -3
-100 -60 -205 -126 -104 -66 -239 -150 -300 -187 -136 -83 -597 -369 -645
-399 -19 -12 -63 -40 -98 -61 -66 -41 -83 -51 -250 -155 -56 -35 -115 -71
-130 -80 -24 -15 -203 -126 -1092 -677 -129 -80 -272 -169 -317 -196 -45 -28
-209 -130 -363 -226 -154 -96 -291 -180 -303 -187 -12 -7 -29 -17 -37 -23 -8
-5 -58 -36 -110 -68 -52 -33 -246 -153 -430 -267 -184 -114 -347 -215 -362
-224 -15 -9 -121 -74 -235 -145 -115 -71 -320 -199 -458 -284 -137 -85 -349
-217 -470 -292 -121 -75 -242 -150 -268 -166 -27 -16 -59 -36 -72 -44 -13 -8
-45 -28 -72 -44 -26 -16 -70 -44 -98 -61 -27 -18 -158 -99 -290 -180 -132 -82
-251 -156 -265 -165 -14 -10 -100 -63 -192 -120 -93 -56 -168 -103 -168 -104
0 -3 135 -92 538 -354 70 -45 195 -127 277 -181 83 -54 202 -132 265 -173 63
-41 187 -122 275 -180 88 -57 194 -126 235 -153 41 -27 166 -109 278 -182 200
-131 204 -133 230 -118 15 8 77 47 137 85 61 39 118 73 128 76 9 4 17 10 17
15 0 5 4 9 9 9 5 0 32 15 60 33 53 34 78 50 316 196 83 51 164 102 180 112 68
44 748 467 939 584 63 39 272 169 336 210 36 23 106 66 155 97 50 30 155 96
235 146 80 50 190 119 245 152 55 34 174 108 265 165 91 58 179 112 195 121
17 9 53 31 80 49 28 18 136 85 240 150 105 64 210 130 235 146 25 16 164 103
310 193 146 90 297 184 335 209 62 39 333 207 1030 640 116 72 218 137 227
145 15 13 17 110 17 1323 0 720 -4 1309 -8 1309 -4 0 -12 -5 -18 -11z"/>
<path d="M17610 20791 c-41 -26 -417 -260 -835 -521 -418 -260 -789 -492 -825
-515 -36 -23 -116 -73 -178 -111 -62 -38 -130 -80 -152 -94 -22 -14 -90 -56
-152 -94 -62 -38 -142 -88 -178 -111 -36 -23 -112 -71 -170 -107 -58 -36 -287
-179 -510 -318 -223 -139 -417 -260 -432 -269 -27 -16 -585 -364 -955 -595
-106 -67 -208 -130 -226 -141 -19 -11 -83 -51 -143 -88 -60 -38 -170 -106
-244 -152 -74 -46 -140 -88 -146 -92 -5 -4 -21 -14 -35 -22 -33 -20 -942 -585
-1004 -626 -38 -24 -300 -188 -505 -316 -8 -5 -91 -56 -184 -114 -92 -58 -170
-105 -172 -105 -2 0 -26 -16 -53 -35 -26 -19 -51 -35 -55 -35 -4 0 -40 -22
-80 -49 -41 -27 -78 -50 -83 -52 -5 -2 -98 -60 -207 -128 -227 -143 -218 -118
-76 -206 45 -27 107 -66 138 -86 31 -20 161 -101 287 -179 127 -78 253 -157
280 -175 28 -17 89 -56 138 -86 48 -30 105 -65 127 -79 21 -14 81 -51 132 -83
51 -31 123 -76 160 -100 38 -23 168 -104 290 -181 123 -76 253 -158 289 -181
l66 -43 214 138 c118 77 243 157 279 180 73 46 230 147 668 430 166 107 397
256 512 330 115 74 293 189 395 255 170 110 327 211 775 500 91 58 255 164
365 235 110 72 236 153 280 180 44 28 121 77 170 109 318 206 833 538 900 581
44 28 121 78 170 110 50 33 119 78 155 100 36 23 97 62 137 88 40 26 134 87
210 135 76 49 230 148 343 221 l205 132 1 1207 c1 664 -2 1207 -5 1206 -3 0
-40 -22 -81 -48z"/>
<path d="M1550 16988 l1 -1293 66 -40 c36 -22 80 -49 97 -60 39 -26 455 -286
478 -300 42 -25 164 -101 173 -108 6 -4 107 -68 225 -143 276 -173 290 -181
383 -240 43 -27 119 -75 168 -106 49 -32 91 -58 93 -58 3 0 31 -17 63 -39 32
-21 87 -56 123 -78 36 -22 268 -167 515 -322 512 -322 794 -499 830 -521 14
-8 89 -55 167 -105 79 -49 231 -145 338 -212 107 -67 200 -126 205 -131 6 -5
16 -11 21 -13 6 -2 74 -44 152 -94 78 -49 150 -94 159 -100 10 -5 82 -50 161
-100 78 -49 164 -103 191 -120 77 -47 523 -328 671 -422 74 -47 146 -92 160
-100 14 -8 44 -26 67 -41 155 -98 434 -274 716 -451 180 -113 340 -214 355
-223 15 -10 40 -25 56 -34 16 -9 79 -48 140 -88 61 -39 169 -107 239 -151 70
-44 165 -104 210 -132 45 -29 89 -56 97 -60 8 -4 46 -27 85 -52 39 -25 78 -50
88 -56 23 -14 164 -103 207 -131 19 -12 159 -100 310 -194 151 -95 326 -205
389 -244 62 -39 125 -78 140 -87 14 -9 159 -100 321 -203 162 -102 329 -206
370 -232 41 -25 112 -69 157 -97 260 -164 464 -292 586 -369 123 -78 141 -87
160 -76 19 10 117 71 247 153 19 12 82 52 140 87 58 36 263 163 455 283 193
120 463 288 600 373 138 86 317 198 398 249 82 51 153 93 157 93 5 0 10 4 12
8 2 5 28 23 58 40 30 18 82 50 115 72 33 22 66 43 74 46 16 8 343 211 401 249
19 13 193 121 385 240 193 120 391 243 440 274 50 31 98 61 107 66 19 11 273
170 353 220 28 18 100 63 161 101 62 38 140 87 175 109 35 22 75 47 89 55 39
24 418 259 490 305 36 23 112 70 170 106 58 35 107 67 108 71 2 4 7 8 12 8 5
0 114 66 242 146 128 81 245 154 260 163 35 20 263 162 348 216 90 57 316 198
337 210 10 6 29 17 43 26 14 9 129 81 255 159 127 78 246 153 265 165 19 13
247 154 505 315 259 160 497 309 530 330 32 22 62 35 65 31 3 -5 5 -1518 4
-3362 -1 -3292 -1 -3353 -20 -3364 -10 -7 -93 -59 -184 -116 -91 -57 -173
-108 -182 -114 -10 -5 -160 -100 -333 -210 -174 -110 -324 -204 -333 -210 -22
-13 -244 -151 -304 -190 -95 -60 -199 -126 -483 -305 -159 -100 -315 -198
-345 -217 -115 -73 -403 -254 -615 -387 -121 -76 -232 -146 -247 -157 -15 -10
-42 -27 -60 -37 -30 -17 -592 -371 -678 -427 -19 -12 -147 -93 -285 -180 -137
-86 -355 -223 -482 -303 -128 -81 -273 -172 -321 -202 -49 -30 -274 -172 -500
-315 -227 -143 -477 -300 -556 -350 -79 -49 -279 -175 -445 -280 -166 -104
-404 -254 -529 -332 -125 -79 -234 -147 -242 -153 -65 -43 -188 -121 -200
-127 -8 -4 -84 -51 -168 -105 -84 -54 -157 -98 -162 -98 -4 0 -10 -3 -12 -8
-2 -4 -34 -27 -72 -50 l-69 -43 -66 39 c-114 67 -664 403 -706 431 -22 15 -88
56 -147 92 -60 35 -127 76 -150 90 -24 14 -126 77 -228 139 -223 136 -395 241
-612 375 -90 55 -171 105 -180 110 -10 6 -57 34 -105 64 -200 123 -705 432
-803 491 -58 35 -127 78 -155 95 -41 26 -526 323 -627 384 -14 9 -64 39 -110
67 -46 28 -164 101 -263 161 -99 61 -310 190 -470 288 -159 98 -310 190 -335
205 -25 15 -175 107 -335 205 -296 182 -485 297 -533 326 -15 9 -169 103 -342
209 -173 106 -448 274 -610 373 -162 99 -311 190 -330 202 -19 13 -145 90
-280 172 -135 83 -285 174 -333 204 -48 30 -100 61 -115 70 -15 9 -117 72
-227 139 -334 205 -414 254 -450 275 -39 23 -507 309 -545 334 -14 8 -33 20
-43 26 -10 5 -164 100 -343 210 -179 110 -341 209 -359 220 -58 34 -225 137
-345 211 -63 39 -125 76 -137 83 l-23 12 0 -1334 0 -1334 330 -204 c182 -112
341 -211 355 -219 39 -24 180 -111 300 -185 61 -38 158 -98 217 -134 59 -36
151 -93 205 -127 54 -33 188 -116 298 -184 110 -68 238 -148 285 -177 47 -29
103 -63 125 -76 22 -13 96 -59 165 -102 69 -43 137 -85 152 -94 61 -36 285
-175 318 -196 19 -13 161 -101 315 -195 154 -95 296 -182 315 -195 34 -22 501
-311 566 -350 18 -11 135 -83 260 -160 125 -77 239 -147 253 -155 14 -8 30
-19 36 -23 5 -4 84 -53 175 -109 91 -55 188 -115 215 -133 28 -18 88 -55 135
-84 47 -28 139 -85 205 -126 66 -41 166 -102 223 -137 56 -35 114 -70 127 -78
13 -8 64 -39 112 -69 48 -30 111 -68 138 -86 28 -18 122 -76 210 -130 275
-169 499 -307 535 -331 19 -12 161 -100 315 -194 154 -94 296 -182 315 -195
19 -12 125 -78 235 -145 316 -194 907 -559 1002 -619 43 -27 62 -39 293 -181
74 -45 164 -101 199 -124 36 -23 73 -45 83 -51 22 -12 241 -147 543 -335 127
-78 246 -151 265 -162 19 -11 54 -33 77 -49 23 -16 44 -29 47 -29 4 0 37 -20
74 -44 120 -78 215 -136 222 -136 6 0 213 130 375 235 28 18 127 81 220 141
94 59 213 135 265 169 246 159 782 501 798 510 15 9 149 94 412 263 47 30 110
71 140 91 30 20 59 38 65 40 5 2 37 22 71 45 34 23 95 62 136 87 40 26 201
129 358 229 157 101 318 204 357 229 67 42 412 262 503 321 21 14 71 45 110
70 80 51 78 50 344 220 108 69 220 141 250 160 216 137 339 215 616 393 174
111 421 269 550 351 129 83 273 174 320 204 47 30 131 85 188 121 57 36 123
79 147 94 24 16 173 111 332 212 158 101 293 189 300 194 7 6 14 11 17 11 3 0
76 46 163 102 87 55 185 118 218 139 33 21 98 63 145 93 95 61 213 136 370
236 58 37 146 94 195 126 50 32 95 61 101 64 5 3 126 79 267 170 141 91 275
176 297 190 51 31 876 559 1025 655 61 39 208 133 328 209 l217 139 0 5884 0
5885 -32 -20 c-50 -31 -1168 -715 -1291 -791 -60 -36 -116 -71 -125 -76 -9 -6
-50 -30 -90 -55 -40 -25 -88 -54 -106 -65 -37 -22 -157 -95 -391 -239 -246
-151 -468 -288 -497 -305 -15 -9 -148 -90 -295 -180 -147 -91 -313 -192 -368
-226 -577 -354 -935 -574 -1057 -649 -81 -50 -156 -95 -165 -101 -37 -20 -489
-298 -515 -316 -15 -11 -30 -19 -34 -19 -3 0 -20 -10 -37 -22 -18 -13 -41 -28
-52 -34 -20 -11 -111 -67 -500 -306 -121 -74 -371 -227 -555 -340 -184 -113
-384 -236 -445 -273 -60 -37 -119 -73 -130 -79 -11 -6 -34 -21 -52 -33 -17
-13 -34 -23 -38 -23 -4 0 -30 -15 -58 -34 -45 -29 -261 -162 -407 -250 -25
-15 -70 -43 -100 -62 -47 -29 -174 -107 -228 -139 -67 -40 -155 -93 -197 -120
-27 -18 -120 -75 -205 -127 -407 -250 -786 -482 -895 -548 -130 -79 -359 -220
-415 -255 -19 -12 -87 -53 -150 -92 -63 -39 -184 -113 -268 -164 -84 -52 -165
-101 -180 -110 -15 -9 -98 -59 -184 -113 l-157 -96 -158 96 c-87 53 -169 104
-183 114 -14 9 -32 20 -40 24 -8 4 -24 12 -35 19 -63 38 -265 163 -295 182
-19 13 -188 116 -375 230 -187 114 -385 236 -440 270 -140 86 -356 218 -377
230 -10 6 -116 70 -236 144 -119 74 -325 200 -457 281 -132 81 -388 238 -568
349 -181 110 -332 201 -337 201 -5 0 -10 4 -12 8 -1 4 -59 42 -128 83 -69 42
-186 113 -260 159 -207 127 -397 244 -466 285 -18 11 -84 52 -146 90 -62 39
-117 72 -123 75 -5 3 -35 21 -66 40 -30 19 -64 40 -75 47 -57 35 -211 129
-226 138 -10 5 -92 56 -183 113 -92 56 -170 102 -176 102 -5 0 -9 5 -9 10 0 6
-4 10 -9 10 -5 0 -111 64 -237 142 -126 77 -242 149 -259 158 -16 10 -133 81
-260 159 -126 77 -237 145 -245 150 -8 5 -120 74 -247 153 -128 79 -248 152
-267 163 -19 11 -86 52 -148 90 -62 39 -121 75 -131 80 -9 6 -126 77 -260 159
-319 196 -388 239 -412 253 -11 6 -98 60 -194 120 -96 59 -179 110 -185 112
-6 2 -36 21 -66 41 -30 20 -62 40 -70 43 -8 4 -27 15 -42 25 -15 9 -67 41
-115 71 -48 30 -140 86 -203 125 -63 39 -123 76 -132 81 -9 6 -65 39 -123 75
-58 36 -114 70 -123 75 -10 6 -40 24 -67 41 -28 18 -221 136 -430 264 -209
128 -425 261 -480 295 -55 34 -110 67 -122 74 l-23 12 0 -1293z"/>
<path d="M1550 12323 l0 -1218 93 -58 c50 -32 218 -139 372 -237 154 -98 307
-196 340 -216 33 -21 129 -82 212 -136 84 -54 157 -98 162 -98 5 0 11 -4 13
-8 2 -4 77 -54 168 -111 91 -58 194 -123 230 -146 181 -116 526 -335 812 -517
162 -102 441 -279 533 -338 364 -231 452 -287 474 -300 14 -8 30 -18 36 -23
14 -10 60 -40 205 -132 69 -43 161 -102 205 -130 114 -73 342 -218 362 -230
16 -10 194 -123 337 -215 39 -25 78 -49 88 -55 19 -11 680 -430 788 -501 195
-127 463 -294 471 -294 5 0 9 -4 9 -10 0 -5 4 -10 9 -10 5 0 31 -15 58 -32 26
-18 81 -53 121 -78 40 -25 121 -76 181 -115 133 -87 494 -316 518 -330 19 -11
71 -44 158 -100 28 -18 192 -122 365 -232 173 -110 454 -289 623 -397 170
-108 313 -196 317 -196 5 0 10 -4 12 -8 2 -7 163 -111 226 -147 9 -5 42 -26
72 -46 30 -20 90 -58 132 -85 43 -27 117 -74 165 -105 49 -31 201 -127 338
-214 138 -87 279 -177 315 -201 36 -23 169 -107 295 -187 127 -80 264 -167
305 -194 102 -65 101 -65 146 -35 67 45 423 276 449 292 20 12 514 332 1223
792 95 61 244 157 270 173 9 6 49 31 87 56 158 103 314 205 380 247 39 25 126
82 195 127 69 44 242 156 385 249 143 92 348 225 455 294 108 70 238 155 290
188 303 195 859 555 945 611 337 219 664 430 1007 652 l87 56 1 1273 c0 1016
-3 1272 -12 1266 -7 -4 -26 -17 -43 -28 -16 -12 -38 -26 -47 -31 -17 -10
-1001 -636 -1170 -744 -94 -61 -251 -161 -357 -228 -95 -60 -298 -189 -399
-254 -48 -30 -115 -73 -149 -95 -35 -21 -100 -63 -145 -92 -171 -109 -939
-598 -978 -622 -22 -14 -146 -92 -275 -175 -129 -82 -261 -166 -293 -186 -81
-51 -291 -185 -752 -479 -467 -298 -477 -304 -617 -393 -60 -37 -160 -101
-223 -142 -274 -175 -361 -227 -373 -221 -6 3 -43 26 -82 50 -74 48 -288 180
-333 207 -25 15 -352 219 -490 305 -34 21 -70 44 -80 49 -9 6 -68 42 -130 80
-62 39 -121 75 -130 80 -24 14 -409 253 -452 280 -19 13 -179 112 -355 220
-176 109 -489 302 -695 430 -324 201 -536 332 -590 364 -8 5 -158 99 -334 208
-175 109 -331 205 -346 214 -25 14 -84 51 -200 125 -51 32 -750 464 -782 483
-15 9 -202 124 -414 256 -475 295 -599 372 -689 426 -38 23 -99 61 -135 84
-84 54 -407 254 -440 272 -14 8 -63 38 -110 68 -109 69 -315 197 -338 210 -21
12 -401 248 -452 280 -78 51 -126 80 -135 85 -6 3 -61 37 -123 75 -62 39 -121
75 -130 80 -17 10 -314 194 -532 329 -395 246 -875 544 -903 560 -28 16 -321
198 -648 401 -64 40 -126 78 -137 84 l-22 12 0 -1218z"/>
</g>
</svg>
